<?xml version="1.0" encoding="UTF-8"?>
<svg width="105px" height="91px" viewBox="0 0 105 91" version="1.1" xmlns="http://www.w3.org/2000/svg" xmlns:xlink="http://www.w3.org/1999/xlink">
    <!-- Generator: Sketch 55.2 (78181) - https://sketchapp.com -->
    <title>Soapbox-icon</title>
    <desc>Created with Sketch.</desc>
    <g id="Page-1" stroke="none" stroke-width="1" fill="none" fill-rule="evenodd">
        <g id="Editing-Neutral-thing" transform="translate(-135.000000, -522.000000)" fill="#FFE39A">
            <path d="M173,575 C162.50659,575 154,566.49341 154,556 C154,545.50659 162.50659,537 173,537 C183.49341,537 192,545.50659 192,556 C192,566.49341 183.49341,575 173,575 Z M173,584 C185.6825,584 211,590.476667 211,603.333333 L211,613 L135,613 L135,603.333333 C135,590.476667 160.3175,584 173,584 Z M209.887324,538 C219.370892,548.591472 219.370892,563.275103 209.887324,573 L202,564.863824 C205.943662,559.182944 205.943662,551.817056 202,546.136176 L209.887324,538 Z M225.866189,522 C244.735392,541.382143 244.687133,570.383571 225.866189,589 L218,581.199286 C231.367696,565.980714 231.367696,544.253571 218,529.800714 L225.866189,522 Z" id="Soapbox-icon"></path>
        </g>
    </g>
</svg>