<?xml version="1.0" encoding="UTF-8"?>
<svg width="59px" height="57px" viewBox="0 0 59 57" version="1.1" xmlns="http://www.w3.org/2000/svg" xmlns:xlink="http://www.w3.org/1999/xlink">
    <!-- Generator: Sketch 60 (88103) - https://sketch.com -->
    <title>star-icon</title>
    <desc>Created with Sketch.</desc>
    <g id="POC" stroke="none" stroke-width="1" fill="none" fill-rule="evenodd">
        <g id="POC---Post-Opinion" transform="translate(-157.000000, -288.000000)" fill="#F2BE22">
            <g id="AllPost" transform="translate(0.000000, 266.000000)">
                <path d="M186.5,70.75 L171.601825,78.582434 C170.135291,79.3534364 168.32141,78.7895968 167.550408,77.3230631 C167.24339,76.7390817 167.137446,76.0701774 167.248977,75.4199045 L170.094275,58.8305432 L170.094275,58.8305432 L158.041399,47.0818922 C156.854948,45.9253886 156.830671,44.0260488 157.987175,42.839598 C158.4477,42.3671471 159.051128,42.0596856 159.704039,41.9648121 L176.360704,39.5444568 L176.360704,39.5444568 L183.809792,24.4509573 C184.543059,22.9651963 186.341936,22.3551793 187.827697,23.0884462 C188.419335,23.3804369 188.898218,23.8593194 189.190208,24.4509573 L196.639296,39.5444568 L196.639296,39.5444568 L213.295961,41.9648121 C214.935596,42.2030649 216.07164,43.7253935 215.833387,45.365028 C215.738514,46.0179391 215.431052,46.6213664 214.958601,47.0818922 L202.905725,58.8305432 L202.905725,58.8305432 L205.751023,75.4199045 C206.031106,77.0529139 204.934343,78.6037817 203.301333,78.8838647 C202.65106,78.9953952 201.982156,78.8894512 201.398175,78.582434 L186.5,70.75 L186.5,70.75 Z" id="star-icon"></path>
            </g>
        </g>
    </g>
</svg>